# xmcd
#
# Track frame offsets: 
#        150
#        20862
#        37285
#        60588
#        76895
#        97748
#        115083
#        133373
#        153428
#        174938
#        194360
#        216725
#        230800
#        247147
#        270759
#        292006
#        310592
#        328271
#
# Disc length: 4636 seconds
#
# Revision: 0
# Processed by: cddbd v1.5.1PL0 Copyright (c) Steve Scherf et al.
# Submitted via: ExactAudioCopy v0.95a5
#
DISCID=0e121a12
DTITLE=容中尔甲 - 高原红 - 1
DYEAR=2003
DGENRE=Country
TTITLE0=高原红
TTITLE1=凤凰天堂
TTITLE2=神奇的九寨
TTITLE3=九寨情缘
TTITLE4=你在天边
TTITLE5=阿妈的笑脸
TTITLE6=九寨之子
TTITLE7=喜马拉雅恋曲
TTITLE8=背水姑娘
TTITLE9=故乡
TTITLE10=呼唤春天
TTITLE11=九寨翠海
TTITLE12=心中的昌都
TTITLE13=雪域之光
TTITLE14=雅鲁藏布情歌
TTITLE15=永远的雪莲花
TTITLE16=扎西德勒
TTITLE17=神奇的九寨(节奏版)
EXTD=
EXTT0=
EXTT1=
EXTT2=
EXTT3=
EXTT4=
EXTT5=
EXTT6=
EXTT7=
EXTT8=
EXTT9=
EXTT10=
EXTT11=
EXTT12=
EXTT13=
EXTT14=
EXTT15=
EXTT16=
EXTT17=
PLAYORDER=
